<svg width="25" height="24" fill="none" xmlns="http://www.w3.org/2000/svg"><path fill-rule="evenodd" clip-rule="evenodd" d="M10.156 5.132l-1.09.561L4.8 17.928l.85.529 3.126-.289.882-2.694 2.998-.24.594 2.068.866.273 2.276-.273-3.415-11.609-2.822-.56zm.956 3.848L9.92 13.39l2.476-.132-1.284-4.277z" fill="#fff"/><path d="M18.253 3.24c-.513 1.476-1.7 2.23-2.228 2.422v1.94l.737.112 1.09-.497c-.005 1.694-.012 5.115 0 5.243.013.129 1.406.171 2.101.177l.449-.337V3.465L19.953 3c-.802.096-.862.1-1.7.24z" fill="#fff"/></svg>