<svg width="25" height="24" fill="none" xmlns="http://www.w3.org/2000/svg"><path d="M14.168 14.128l-.011.009-.01.008-.817.675-.021-.011a2.356 2.356 0 01-.454-.362c-.368-.358-.79-.888-1.178-1.473-.387-.585-.723-1.2-.928-1.721a3.108 3.108 0 01-.191-.654.912.912 0 01-.012-.182l.842-.701c.354-.262.493-.687.454-1.072l-.01-.469h0c-.018-.662-.032-1.197.037-1.922.052-.555-.255-1.204-.92-1.328l-2.172-.407c-.654-.122-1.216.36-1.313.971-1.04 6.557 3.007 12.847 9.134 13.993.655.122 1.216-.36 1.313-.971l.374-2.357c.094-.59-.257-1.21-.871-1.35a59.39 59.39 0 01-2.08-.771 1.1 1.1 0 00-1.166.095zm-.765.723h.002-.002z" fill="#fff" stroke="#fff"/></svg>