<svg version="1.2" baseProfile="tiny-ps" xmlns="http://www.w3.org/2000/svg" viewBox="0 0 24 22" width="24" height="22">
	<title>Forma 1</title>
	<style>
		tspan { white-space:pre }
		.shp0 { fill: #ffffff } 
	</style>
	<path id="Forma 1" class="shp0" d="M1.81 2.63L4.15 2.63L7.47 14.67C7.57 15.02 7.89 15.26 8.26 15.26L18.47 15.26C18.8 15.26 19.08 15.07 19.22 14.78L22.93 6.22C23.04 5.96 23.02 5.67 22.87 5.44C22.72 5.21 22.46 5.07 22.19 5.07L10.9 5.07C10.45 5.07 10.09 5.44 10.09 5.89C10.09 6.34 10.45 6.71 10.9 6.71L20.94 6.71L17.93 13.63L8.87 13.63L5.54 1.6C5.45 1.24 5.12 1 4.76 1L1.81 1C1.37 1 1 1.37 1 1.81C1 2.26 1.37 2.63 1.81 2.63ZM7.48 21C8.5 21 9.33 20.17 9.33 19.15C9.33 18.13 8.5 17.3 7.48 17.3C6.47 17.3 5.64 18.13 5.64 19.15C5.64 20.17 6.47 21 7.48 21ZM19.01 21C19.05 21 19.11 21 19.15 21C19.64 20.96 20.09 20.74 20.41 20.36C20.74 19.99 20.89 19.52 20.86 19.02C20.79 18.01 19.91 17.23 18.89 17.3C17.87 17.37 17.11 18.27 17.18 19.27C17.25 20.24 18.05 21 19.01 21Z" />
</svg>