<svg version="1.2" baseProfile="tiny-ps" xmlns="http://www.w3.org/2000/svg" viewBox="0 0 24 20" width="24" height="20">
	<title>Forma 1</title>
	<style>
		tspan { white-space:pre }
		.shp0 { fill: #a3bbc8 } 
	</style>
	<path id="Forma 1" class="shp0" d="M22.99 6.82C22.91 5.27 22.25 3.81 21.14 2.72C20.02 1.61 18.55 1 17 1C14.69 1 13.05 2.78 12.18 3.74C12.13 3.8 12.07 3.86 12.02 3.91C11.99 3.88 11.96 3.85 11.94 3.82C11.13 2.9 9.46 1 7 1C5.45 1 3.98 1.61 2.86 2.72C1.75 3.81 1.09 5.27 1.01 6.82C0.93 8.36 1.32 9.7 2.28 11.16C3.14 12.47 5.38 14.53 7.04 15.91C8.75 17.32 10.99 19 12.01 19C13.04 19 15.28 17.32 16.97 15.91C18.62 14.54 20.85 12.48 21.72 11.16C22.37 10.17 23.1 8.79 22.99 6.82ZM20.61 10.43C19.98 11.39 18.2 13.17 16.18 14.85C13.78 16.85 12.35 17.64 12.01 17.67C11.67 17.64 10.24 16.84 7.82 14.83C5.79 13.15 4.01 11.38 3.39 10.43C2.59 9.22 2.27 8.13 2.33 6.89C2.47 4.37 4.56 2.32 7 2.32C8.86 2.32 10.21 3.86 10.94 4.69C11.37 5.18 11.6 5.45 12 5.45C12.41 5.45 12.67 5.16 13.15 4.64C13.94 3.77 15.27 2.32 17 2.32C19.44 2.32 21.53 4.37 21.67 6.89C21.74 8.15 21.42 9.2 20.61 10.43Z" />
</svg>