<svg version="1.2" baseProfile="tiny-ps" xmlns="http://www.w3.org/2000/svg" viewBox="0 0 55 42" width="55" height="42">
	<title>Path 324</title>
	<style>
		tspan { white-space:pre }
		.shp0 { fill: #a3bbc8 } 
	</style>
	<path id="Path 324" fill-rule="evenodd" class="shp0" d="M3.09 29.83C3.18 29.65 9.5 16.89 9.67 16.57C9.84 16.24 10.05 16.18 10.18 16.12L45.37 2.07C45.37 2.07 45.94 1.88 46.34 2.12C46.73 2.36 46.79 2.76 46.79 2.76L53.04 39.84C53.04 39.84 53.13 40.32 52.73 40.65C52.32 40.98 51.82 40.86 51.82 40.86L3.78 31.06C3.76 31.06 3.4 30.99 3.16 30.67C2.92 30.36 3 30.01 3.09 29.83ZM39.03 23.81L28.69 25.96L48.74 37.11L39.03 23.81ZM5.74 28.92L23.57 25.21L11.05 18.23L5.74 28.92ZM26.31 24.64L38.68 22.06L44.24 4.47L12.71 17.06L26.31 24.64ZM45.49 7.13L40.58 22.65L50.36 36.05L45.49 7.13ZM25.95 26.54L8.43 30.19L46.48 37.95L25.95 26.54Z" />
</svg>