<svg version="1.2" baseProfile="tiny-ps" xmlns="http://www.w3.org/2000/svg" viewBox="0 0 22 22" width="22" height="22">
	<title>Forma 1</title>
	<style>
		tspan { white-space:pre }
		.shp0 { fill: #a3bbc8 } 
	</style>
	<path id="Forma 1" class="shp0" d="M20.45 17.8L15.86 13.21C15.18 14.27 14.27 15.18 13.21 15.86L17.8 20.45C18.53 21.18 19.72 21.18 20.45 20.45C21.18 19.72 21.18 18.53 20.45 17.8ZM16 8.5C16 4.36 12.64 1 8.5 1C4.36 1 1 4.36 1 8.5C1 12.64 4.36 16 8.5 16C12.64 16 16 12.64 16 8.5ZM8.5 14.12C5.4 14.12 2.87 11.6 2.87 8.5C2.87 5.4 5.4 2.87 8.5 2.87C11.6 2.87 14.12 5.4 14.12 8.5C14.12 11.6 11.6 14.12 8.5 14.12ZM4.12 8.5L5.37 8.5C5.37 6.78 6.78 5.37 8.5 5.37L8.5 4.12C6.09 4.12 4.12 6.09 4.12 8.5Z" />
</svg>